<?xml version="1.0" encoding="utf-8"?>
<!-- Generator: Adobe Illustrator 16.0.0, SVG Export Plug-In . SVG Version: 6.00 Build 0)  -->
<!DOCTYPE svg PUBLIC "-//W3C//DTD SVG 1.1//EN" "http://www.w3.org/Graphics/SVG/1.1/DTD/svg11.dtd">
<svg version="1.1" id="Layer_1" xmlns="http://www.w3.org/2000/svg" xmlns:xlink="http://www.w3.org/1999/xlink" x="0px" y="0px"
	 width="4811.038px" height="1391.722px" viewBox="0 0 4811.038 1391.722" enable-background="new 0 0 4811.038 1391.722"
	 xml:space="preserve">
<g>
	<path fill-rule="evenodd" clip-rule="evenodd" fill="#005EB8" d="M4712.403,1158.354c-4.351,0.844-7.848,1.764-11.403,2.161
		c-8.624,0.963-13.317-2.938-13.526-11.712c-0.283-11.973-0.096-23.957-0.107-35.936c-0.006-4.581-0.002-9.162-0.002-14.288
		c7.88-0.808,14.625-1.5,21.459-2.201c0-5.958,0-10.792,0-16.175c-7.278-0.553-14.005-1.064-21.707-1.65c0-11.393,0-21.581,0-32.365
		c-8.514,0-15.926,0-24.665,0c0,11.103,0,21.559,0,32.133c-5.04,0.882-8.815,1.543-12.861,2.252c0,5.452,0,10.29,0,15.409
		c4.519,1.145,8.538,2.163,13.108,3.321c0,4.234-0.003,7.862,0,11.49c0.01,16.305-0.194,32.613,0.105,48.913
		c0.222,11.978,6.863,20.735,17.428,22.426c12.344,1.976,24.404,0.54,36.43-6.241
		C4715.274,1170.178,4713.905,1164.542,4712.403,1158.354z"/>
	<path fill-rule="evenodd" clip-rule="evenodd" fill="#005EB8" d="M4201.466,632.097c0.802,19.491,4.661,36.365,11.234,52.407
		c24.973,60.955,70.131,96.441,135.563,105.33c44.433,6.036,85.213-4.876,122.843-28.441c19.598-12.273,35.02-28.589,45.294-49.508
		c0.719-1.467,1.61-2.849,3.075-5.414c44.622,12.416,89.288,24.843,135.139,37.601c-2.136,4.434-3.535,7.714-5.241,10.826
		c-21.236,38.762-50.98,69.718-87.109,94.805c-41.804,29.026-88.143,45.985-138.421,53.226c-29.854,4.299-59.835,5.312-89.706,3.262
		c-143.783-9.87-264.141-102.937-294.477-253.127c-19.841-98.228-2.219-190.519,58.535-271.858
		c47.676-63.832,112.66-101.304,190.211-117.666c25.516-5.384,51.43-7.56,77.385-7.458c73.232,0.287,140.779,19.379,200.188,63.445
		c63.009,46.735,100.964,109.533,117.64,185.641c8.262,37.711,9.903,75.864,6.275,114.271c-1.191,12.606-1.156,12.65-13.611,12.652
		c-109.634,0.011-219.269,0.006-328.902,0.006c-44.32,0-88.642,0.001-132.962,0.001
		C4210.512,632.097,4206.604,632.097,4201.466,632.097z M4526.543,528.876c-1.01-61.568-36.546-114.321-84.419-138.361
		c-61.035-30.65-121.081-27.601-177.298,12.33c-40.028,28.433-71.325,91.54-64.202,126.031
		C4308.954,528.876,4417.401,528.876,4526.543,528.876z"/>
	<path fill-rule="evenodd" clip-rule="evenodd" fill="#005EB8" d="M2658.954,632.191c-162.585,0-324.036,0-487.154,0
		c1.587,10.19,2.483,19.017,4.377,27.624c14.892,67.709,67.036,118.061,135.26,129.21c50.705,8.286,97.181-3.641,138.97-33.426
		c17.155-12.227,29.959-28.263,39.222-48.185c2.906,0.391,5.834,0.449,8.569,1.203c40.073,11.044,80.126,22.168,120.167,33.328
		c2.158,0.602,4.18,1.694,6.961,2.847c-1.825,3.71-3.272,7.008-5.014,10.141c-31.092,55.938-77.49,95.076-134.801,121.93
		c-34.069,15.962-70.132,25.23-107.623,27.719c-24.219,1.607-48.693,3.139-72.834,1.492
		c-149.986-10.232-266.637-109.9-294.822-255.084c-16.957-87.344-4.137-170.714,43.164-246.945
		c45.689-73.635,112.855-118.156,196.479-138.398c40.811-9.878,82.389-11.835,124.036-7.666
		c86.257,8.634,158.987,44.471,215.442,110.927c37.596,44.256,58.771,96.17,68.499,153.139c5.313,31.12,4.601,62.388,3.597,93.694
		C2661.29,620.659,2659.997,625.541,2658.954,632.191z M2498.231,527.715c-0.788-21.273-6.026-41.652-14.56-61.196
		c-13.03-29.843-33.682-53.326-61.074-70.766c-53.477-34.044-129.271-34.263-183.696,4.501
		c-40.688,28.979-75.324,94.184-67.652,127.852C2180.435,530.163,2489.126,530.031,2498.231,527.715z"/>
	<path fill-rule="evenodd" clip-rule="evenodd" fill="#005EB8" d="M2913.946,894.288c-53.004,0-104.511,0-155.842,0
		c-2.559-8.513-2.791-616.112-0.249-626.24c46.346,0,92.862,0,140.664,0c0.273,3.452,0.78,6.924,0.787,10.396
		c0.063,30.326,0.037,60.652,0.037,90.979c0,3.507,0,7.015,0,10.521c0.712,0.193,1.424,0.387,2.136,0.58
		c1.226-1.299,2.693-2.442,3.641-3.92c38.655-60.357,95.344-94.113,163.481-111.127c25.343-6.328,51.196-8.622,77.14-9.348
		c20.646-0.578,41.294,1.235,61.385,6.438c50.498,13.076,85.419,44.415,106.601,91.705c10.295,22.984,16.207,47.148,19.831,71.947
		c4.635,31.717,5.918,63.623,5.878,95.652c-0.147,119.638-0.059,239.277-0.059,358.915c0,4.229,0,8.459,0,13.379
		c-53.21,0-105.051,0-158.266,0c-0.194-4.14-0.558-8.297-0.559-12.454c-0.032-94.645-0.021-189.289-0.027-283.934
		c-0.002-20.662,0.312-41.331-0.141-61.983c-0.569-26.042-2.913-51.936-12.065-76.616c-12.527-33.781-35.497-56.024-71.91-61.784
		c-18.25-2.887-36.626-1.505-54.295,4.33c-58.484,19.316-99.297,57.792-123.275,114.389c-3.326,7.849-4.243,15.945-4.236,24.386
		c0.081,112.973,0.061,225.946,0.025,338.92C2914.626,884.006,2914.218,888.592,2913.946,894.288z"/>
	<path fill-rule="evenodd" clip-rule="evenodd" fill="#005EB8" d="M1157.306,1172.507c-2.906,0-5.813,0-8.72,0
		c-65.651,0-131.304-0.088-196.955,0.131c-6.87,0.022-11.715-1.965-16.511-6.97c-130.037-135.711-260.282-271.223-390.26-406.99
		c-9.381-9.799-18.219-20.551-25.208-32.127c-22.443-37.175-18.514-74.505,2.747-110.661c5.834-9.923,13.62-18.995,21.761-27.22
		C666.063,465.5,788.183,342.546,910.196,219.486c3.662-3.693,7.194-6.128,12.884-6.111c70.317,0.203,140.635,0.141,210.953,0.162
		c0.987,0.001,1.974,0.205,3.538,0.379c-0.36,4.148-3.744,6.026-6.084,8.39c-64.244,64.89-128.549,129.72-192.839,194.565
		c-82.122,82.83-164.243,165.663-246.353,248.507c-2.995,3.021-5.875,6.157-9.628,10.101
		c158.858,165.36,317.134,330.112,475.409,494.864C1157.819,1171.064,1157.563,1171.785,1157.306,1172.507z"/>
	<path fill-rule="evenodd" clip-rule="evenodd" fill="#005EB8" d="M1390.225,822.628c20.675-34.859,41.507-69.983,62.959-106.154
		c4.105,2.417,7.468,4.313,10.747,6.341c37.818,23.395,77.476,42.8,120.19,55.622c37.933,11.388,76.637,17.048,116.253,14.999
		c18.688-0.967,37.05-4.257,54.204-12.229c20.815-9.674,35.644-24.391,39.087-48.188c3.247-22.438-3.476-41.155-22.586-53.837
		c-9.047-6.004-19.311-10.488-29.51-14.384c-34.24-13.078-69.849-21.547-105.385-30.207c-39.445-9.612-78.725-19.902-116.105-36.03
		c-13.092-5.647-25.871-12.355-37.974-19.895c-36.946-23.018-57.926-56.355-60.993-100.004
		c-4.622-65.744,16.635-121.204,67.362-164.328c22.875-19.445,49.109-33.028,77.465-42.565c31.784-10.69,64.476-15.72,98.022-16.411
		c94.465-1.948,180.227,26.391,260.609,73.89c1.412,0.834,2.699,1.878,5.185,3.625c-21.388,32.276-42.626,64.326-64.48,97.308
		c-3.813-2.181-7.198-4.023-10.492-6.017c-35.203-21.31-71.99-38.975-112.3-48.391c-31.629-7.388-63.576-11.275-96.046-7.051
		c-16.276,2.118-31.913,6.61-46.367,14.627c-26.866,14.899-38.944,48.001-27.969,76.676c4.906,12.818,14.061,21.877,26.356,27.354
		c11.831,5.271,23.818,10.514,36.217,14.122c33.834,9.848,67.952,18.71,101.897,28.179c38.146,10.642,76.193,21.639,112.317,38.219
		c18.221,8.362,35.529,18.278,51.225,30.871c30.462,24.441,45.504,56.527,47.666,95.178c1.657,29.641-1.209,58.576-12.862,86.172
		c-19.064,45.147-52.127,76.625-95.996,97.263c-33.165,15.602-68.233,24.705-104.698,27.085
		c-26.544,1.731-53.313,2.842-79.833,1.439c-42.923-2.269-85.19-10.051-126.652-21.544c-43.449-12.043-85.376-27.911-124.068-51.482
		c-3.695-2.251-7.291-4.669-10.863-7.112C1392.027,825.235,1391.546,824.268,1390.225,822.628z"/>
	<path fill-rule="evenodd" clip-rule="evenodd" fill="#005EB8" d="M3958.773,332.816c-21.654,32.714-42.742,64.572-64.365,97.239
		c-3.802-2.093-7.259-3.833-10.558-5.835c-35.182-21.349-71.978-38.953-112.272-48.418c-31.634-7.431-63.582-11.278-96.042-7.085
		c-16.945,2.189-33.201,6.909-48.104,15.598c-26.235,15.296-37.58,49.559-25.629,77.45c5.106,11.916,13.811,20.73,25.562,25.503
		c18.155,7.374,36.486,14.596,55.268,20.088c36.696,10.73,73.974,19.489,110.589,30.469c26.721,8.013,52.98,17.719,79.042,27.722
		c19.319,7.414,37.119,18.046,53.619,30.652c29.329,22.408,45.701,51.879,50.103,88.68
		c10.495,87.756-34.807,163.361-119.763,197.711c-30.128,12.182-61.403,19.992-93.823,21.996c-23.9,1.477-48.015,3.091-71.841,1.586
		c-88.664-5.6-173.548-25.812-251.743-69.646c-6.634-3.72-12.914-8.071-20.296-12.719c21.354-35.999,42.315-71.335,63.726-107.428
		c4.461,2.687,7.833,4.679,11.168,6.73c44.487,27.372,91.29,49.344,142.395,61.393c31.304,7.381,63.008,10.823,95.105,8.847
		c21.04-1.295,41.581-5.395,60.247-16.052c24.17-13.8,35.48-36.403,31.382-63.775c-2.673-17.844-13.086-30.777-28.886-38.355
		c-14.942-7.167-30.434-13.689-46.325-18.272c-35.438-10.223-71.299-18.967-106.942-28.484
		c-32.79-8.756-65.413-18.098-96.511-31.945c-21.739-9.679-42-21.682-58.962-38.717c-20.895-20.985-31.694-46.532-34.268-75.734
		c-2.723-30.906-0.228-61.262,11.142-90.414c18.975-48.653,53.592-82.79,99.675-105.883c31.563-15.817,65.075-25.616,100.281-28.077
		c23.87-1.669,47.983-2.803,71.819-1.377c41.688,2.494,82.158,12.058,121.504,26.235c32.354,11.659,63.429,26.013,93.088,43.418
		C3951.506,327.881,3954.681,330.145,3958.773,332.816z"/>
	<path fill-rule="evenodd" clip-rule="evenodd" fill="#005EB8" d="M593.421,143.408c0-15.327,0-28.55,0-42.422
		c2.304-0.45,4.453-1.047,6.64-1.249c2.313-0.215,4.662-0.059,6.995-0.059c189.312,0,378.625,0.438,567.935-0.27
		c56.228-0.21,96.81,24.66,125.934,70.76c18.93,29.963,27.698,63.208,28.751,98.542c0.119,3.996,0.068,7.998,0.068,11.998
		c0.004,271.969-0.07,543.938,0.102,815.907c0.021,31.8-5.234,62.299-18.402,91.279c-11.49,25.288-27.634,47.102-49.824,64.042
		c-22.9,17.482-48.532,27.095-77.73,26.991c-63.325-0.226-126.652-0.059-189.979-0.058c-240.64,0.001-481.282-0.723-721.916,0.449
		c-70.376,0.343-114.367-34.244-142.439-94.573c-12.678-27.245-17.112-56.446-17.081-86.528
		c0.176-168.98,0.078-337.962,0.084-506.943c0.004-105.987-0.114-211.976,0.12-317.963c0.08-36.093,9.623-69.853,28.611-100.579
		c20.292-32.837,47.679-57.16,85.658-67.804c6.953-1.948,13.943-4.51,22.176-2.56c0,13.532,0,27.036,0,41.278
		c-1.845,0.698-3.886,1.796-6.062,2.246c-28.256,5.848-48.263,22.982-63.409,46.557c-16.126,25.099-22.519,53.093-23.667,82.528
		c-0.182,4.659-0.073,9.331-0.073,13.997c-0.003,268.303,0.019,536.606-0.036,804.909c-0.005,23.884,3.069,47.16,12.112,69.41
		c7.108,17.487,16.954,33.22,30.748,46.257c18.219,17.22,39.657,26.027,65.005,26.018c304.966-0.114,609.931-0.143,914.896,0.035
		c30.132,0.018,54.187-11.822,73.53-34.109c17.947-20.678,28.192-45.066,32.42-71.92c1.547-9.824,2.253-19.881,2.257-29.831
		c0.116-273.636,0.06-547.271,0.137-820.907c0.009-29.285-6.412-56.79-21.064-82.212c-7.729-13.408-17.605-25.025-29.909-34.534
		c-16.138-12.471-34.421-18.523-54.747-18.627c-4.333-0.022-8.666-0.054-12.998-0.054c-186.313-0.003-372.625-0.003-558.938-0.003
		C604.395,143.408,599.464,143.408,593.421,143.408z"/>
	<path fill-rule="evenodd" clip-rule="evenodd" fill="#005EB8" d="M495.227,96.977c0,358.327,0,716.194,0,1074.8
		c-52.629,0-104.775,0-156.913,0c-2.031-7.044-2.719-1061.32-0.713-1074.349C344.604,95.485,481.82,94.922,495.227,96.977z"/>
	<path fill-rule="evenodd" clip-rule="evenodd" fill="#005EB8" d="M2853.414,1088.867c2.128-4.801,3.604-7.62,4.653-10.59
		c3.323-9.412,6.7-18.814,9.628-28.352c1.624-5.289,4.543-7.821,10.112-7.375c4.238,0.34,8.496,0.431,13.922,0.688
		c-0.713,3.398-0.932,5.924-1.773,8.22c-5.501,15.004-10.738,30.125-16.906,44.854c-2.848,6.8-2.397,12.585,0.405,19.007
		c3.858,8.843,7.12,17.945,10.763,26.886c1.077,2.644,2.576,5.115,4.894,9.64c2.278-5.566,3.852-9.089,5.179-12.703
		c10.671-29.063,21.287-58.147,31.938-87.219c3.663-9.997,3.686-10.004,14.019-10.024c4.332-0.008,8.665,0.032,12.995,0.117
		c0.621,0.012,1.234,0.403,2.554,0.865c-0.472,2.038-0.685,4.271-1.494,6.26c-16.815,41.322-33.808,82.573-50.442,123.968
		c-2.369,5.896-5.602,8.412-11.849,7.833c-4.244-0.394-8.555-0.075-12.86-0.075c-9.297-19.213-15.603-38.82-25.675-59.105
		c-2.497,5.315-4.128,8.479-5.495,11.753c-5.516,13.212-11.141,26.384-16.318,39.728c-2.074,5.345-4.842,7.937-10.971,7.744
		c-16.973-0.532-13.495,1.367-19.352-12.857c-15.464-37.558-30.739-75.194-46.059-112.812c-1.503-3.688-2.795-7.463-4.628-12.386
		c8.533-1.896,16.753-1.504,24.707-0.265c2.043,0.318,3.862,4.981,4.969,7.952c10.802,29.016,21.413,58.103,32.129,87.15
		c1.461,3.959,3.204,7.813,5.45,13.255c1.986-3.104,3.423-4.735,4.183-6.638c4.2-10.51,8.046-21.165,12.409-31.605
		c2.071-4.958,2.043-9.39,0.103-14.392c-5.657-14.584-10.934-29.316-16.321-44.005c-1.131-3.083-2.096-6.228-3.354-9.994
		c6.396-3.021,12.73-2.158,18.706-1.191c2.118,0.343,4.45,3.712,5.396,6.19c3.553,9.322,6.529,18.863,9.821,28.287
		C2849.922,1080.746,2851.297,1083.709,2853.414,1088.867z"/>
	<path fill-rule="evenodd" clip-rule="evenodd" fill="#005EB8" d="M4283.8,1180.45c-8.438,0-15.042,0-22.845,0
		c-0.447-3.669-1.197-7.138-1.236-10.614c-0.149-13.331,0.043-26.667-0.134-39.997c-0.075-5.652-0.154-11.417-1.271-16.919
		c-2.466-12.154-13.059-17.536-24.344-12.315c-11.127,5.147-17.795,13.852-17.943,26.542c-0.166,13.997-0.049,27.998-0.054,41.998
		c-0.001,3.286,0,6.572,0,10.023c-7.929,2.669-15.034,1.865-22.021,0.961c-2.446-7.58-3.154-85.764-0.865-99.766
		c6.221,0,12.623,0,19.908,0c0.355,4.763,0.717,9.603,1.185,15.874c2.457-1.871,4.327-2.86,5.622-4.349
		c10.9-12.53,25.045-15.761,40.728-14.013c7.696,0.858,13.632,5.094,17.691,11.745c1.541,2.525,2.894,5.167,4.872,8.727
		c2.375-2.572,4.324-4.609,6.193-6.718c10.4-11.727,23.652-15.764,38.782-13.748c8.819,1.175,15.708,6.128,19.007,14.441
		c2.296,5.785,4.141,12.157,4.291,18.313c0.526,21.653,0.246,43.326,0.223,64.991c-0.002,1.267-0.436,2.532-0.795,4.486
		c-7.371,0-14.529,0-22.852,0c-0.289-3.549-0.799-7.053-0.822-10.56c-0.102-15.665,0.104-31.335-0.182-46.996
		c-0.084-4.575-0.721-9.396-2.338-13.635c-3.316-8.691-11.528-12.113-20.437-9.35c-11.224,3.481-20.083,14.955-20.29,26.996
		c-0.242,13.995-0.068,27.998-0.074,41.997C4283.798,1172.159,4283.8,1175.751,4283.8,1180.45z"/>
	<path fill-rule="evenodd" clip-rule="evenodd" fill="#005EB8" d="M3309.707,1180.072c-2.552-8.267-2.959-126.43-0.608-136.707
		c0.801-0.375,1.694-1.166,2.574-1.152c19.582,0.313,39.283-0.515,58.717,1.387c29.795,2.914,50.616,23.84,54.889,53.309
		c1.868,12.883,1.704,25.882-1.995,38.582c-7.559,25.954-30.132,44.044-57.19,45.023c-16.943,0.612-33.922,0.271-50.884,0.281
		C3313.292,1180.796,3311.374,1180.302,3309.707,1180.072z M3334.245,1065.315c-2.818,12.069-2.128,85.857,0.98,93.654
		c9.4,0,19.09,0.878,28.561-0.19c17.561-1.98,29.004-12.231,34.495-28.989c3.174-9.686,3.538-19.72,1.731-29.604
		c-3.258-17.83-12.773-31.287-31.318-34.513C3357.501,1063.728,3345.693,1065.315,3334.245,1065.315z"/>
	<path fill-rule="evenodd" clip-rule="evenodd" fill="#005EB8" d="M4059.394,1079.711c6.742,0,12.868,0,19.447,0
		c0.625,4.987,1.176,9.382,1.889,15.07c2.504-2.072,4.162-3.061,5.321-4.462c16.851-20.386,54.88-18.46,70.571,9.52
		c11.505,20.516,10.936,41.564-0.633,61.909c-14.872,26.154-50.096,27.252-66.289,7.671c-1.178-1.425-2.732-2.54-5.645-5.199
		c-1.527,20.142,0.102,38.614-1.102,57.431c-8.009,1.945-15.429,1.516-23.561,0.332
		C4059.394,1174.841,4059.394,1128.004,4059.394,1079.711z M4083.389,1127.535c0,2.325-0.034,4.65,0.006,6.974
		c0.204,11.907,9.874,24.044,21.368,26.843c11.719,2.853,23.313-2.199,29.709-13.088c5.518-9.396,6.544-19.484,3.416-29.78
		c-5.016-16.511-22.612-25.339-37.911-19.358C4088.036,1103.791,4083.386,1111.755,4083.389,1127.535z"/>
	<path fill-rule="evenodd" clip-rule="evenodd" fill="#005EB8" d="M3141.381,1037.857c0,10.801,0.001,20.031,0.001,29.261
		c0,8.874-0.001,17.747-0.001,28.771c3.427-2.871,5.273-4.029,6.624-5.61c14.646-17.144,44.656-18.034,61.694,2.011
		c16.232,19.097,17.056,52.539,1.952,72.576c-17.053,22.625-51.966,24.203-67.964,4.195c-0.979-1.224-2.349-2.133-4.816-4.326
		c-0.729,5.66-1.29,10.021-1.965,15.258c-6.304,0-12.685,0-19.583,0c0-47.313,0-94.063,0-141.301
		c2.452-0.325,4.362-0.763,6.279-0.799C3128.887,1037.791,3134.174,1037.857,3141.381,1037.857z M3141.477,1130.821
		c-0.271,8.675-0.778,16.478,5.864,22.938c14.825,14.421,38.999,10.002,47.343-9.11c4.057-9.291,3.916-18.822,0.077-28.15
		c-8.715-21.179-32.529-24.685-47.43-7.367C3141.552,1115.849,3140.792,1123.371,3141.477,1130.821z"/>
	<path fill-rule="evenodd" clip-rule="evenodd" fill="#005EB8" d="M1415.892,1134.412c0,16.085,0,30.337,0,44.22
		c-7.725,3.451-13.818,3.729-23.75,1.404c-1.835-7.169-2.422-123.316-0.584-137.204c2.342-0.295,4.884-0.88,7.429-0.894
		c15.993-0.083,31.99-0.28,47.979,0.013c35.454,0.651,57.14,37.07,40.838,68.524c-8.076,15.583-21.219,23.459-38.68,23.889
		C1438.54,1134.624,1427.946,1134.412,1415.892,1134.412z M1416.44,1111.532c12.613,0,24.516,0.353,36.379-0.162
		c5.268-0.229,9.085-4.209,11.376-8.839c4.725-9.551,5.057-19.476-0.621-28.581c-2.282-3.661-6.543-7.676-10.488-8.417
		c-11.995-2.254-24.225-1.204-36.646-0.721C1416.44,1081.018,1416.44,1095.811,1416.44,1111.532z"/>
	<path fill-rule="evenodd" clip-rule="evenodd" fill="#005EB8" d="M4465.892,1152.181c6.24,1.843,12.186,3.599,18.225,5.382
		c-10.342,24.238-43.646,30.328-66.314,22.057c-26.15-9.543-39.225-37.593-31.029-65.439c7.421-25.213,32.035-41.922,64.133-35.555
		c27.379,5.431,43.777,29.657,39.614,58.155c-25.797,1.124-51.964-0.254-77.849,0.747c-1.738,10.613,3.273,19.668,13.097,24.856
		C4438.668,1169.197,4451.649,1166.08,4465.892,1152.181z M4410.999,1120.619c11.056,2.07,47.41,1.702,54.467-0.428
		c-1.191-15.365-11.963-25.57-27.076-25.651C4423.345,1094.459,4412.565,1104.492,4410.999,1120.619z"/>
	<path fill-rule="evenodd" clip-rule="evenodd" fill="#005EB8" d="M3789.832,1152.398c3.165,0.84,6.669,1.738,10.153,2.705
		c2.516,0.697,5.008,1.482,7.515,2.23c-6.671,21.683-37.458,29.694-60.229,23.893c-28.158-7.174-44.01-34.678-37.469-63.445
		c5.883-25.869,29.803-45.564,64.407-39.372c27.654,4.949,45.057,30.486,40.112,58.345c-25.809,1.159-51.984-0.221-77.91,0.772
		c-1.215,11.116,3.85,19.963,13.585,24.994C3762.799,1169.139,3775.339,1166.054,3789.832,1152.398z M3789.603,1121.343
		c-1.55-17.669-14.066-28.239-30.286-26.726c-14.149,1.319-24.53,12.826-23.579,26.726
		C3753.425,1121.343,3771.15,1121.343,3789.603,1121.343z"/>
	<path fill-rule="evenodd" clip-rule="evenodd" fill="#005EB8" d="M3558.848,1137.195c-26.104,0-51.911,0-77.524,0
		c-1.405,11.394,4.298,20.917,14.416,25.705c12.967,6.137,25.288,2.92,38.903-10.511c4.761,1.214,9.891,2.444,14.964,3.872
		c1.182,0.333,2.176,1.337,3.766,2.361c-4.11,8.306-10.48,14.016-18.287,17.893c-17.734,8.81-35.955,9.259-53.743,0.54
		c-21.882-10.726-32.02-34.509-26.416-59.989c4.94-22.467,25.374-38.778,49.026-39.571c11.594-0.389,22.459,1.482,32.502,7.548
		C3553.983,1095.629,3563.217,1115.797,3558.848,1137.195z M3480.62,1121.268c17.764,0,35.56,0,53.33,0
		c0.617-15.404-11.46-26.959-27.253-26.725C3491.448,1094.77,3479.758,1106.479,3480.62,1121.268z"/>
	<path fill-rule="evenodd" clip-rule="evenodd" fill="#005EB8" d="M1925.781,1157.565c-4.405,9.365-10.835,15.029-18.621,18.908
		c-18.081,9.009-36.611,9.346-54.632,0.174c-21.578-10.983-31.514-35.456-25.396-60.469c5.417-22.147,25.465-37.886,48.731-38.681
		c11.588-0.396,22.461,1.444,32.516,7.496c17.507,10.536,26.722,30.529,22.723,51.281c-3.516,0.286-7.355,0.849-11.197,0.868
		c-18.633,0.096-37.267-0.011-55.899,0.093c-3.829,0.021-7.655,0.636-12.085,1.03c0.979,12.847,6.816,21.104,17.624,25.235
		c14.585,5.574,26.608,0.746,36.85-11.264C1912.523,1153.922,1918.764,1155.637,1925.781,1157.565z M1852.584,1121.256
		c17.674,0,35.47,0,53.23,0c0.997-14.709-10.671-25.993-25.968-26.846C1867.275,1093.71,1849.756,1106.303,1852.584,1121.256z"/>
	<path fill-rule="evenodd" clip-rule="evenodd" fill="#005EB8" d="M3082.558,1136.768c-26.127,1.276-51.99-0.565-77.647,1.015
		c-0.427,12.222,5.575,21.278,16.205,25.68c12.743,5.276,24.759,1.881,37.336-11.106c5.766,1.514,12.036,3.159,18.403,4.83
		c-9.172,24.473-42.648,30.229-64.708,22.948c-27.278-9.002-41.078-38.766-31.915-67.352c8.402-26.211,36.363-41.787,67.92-33.085
		C3073.292,1086.632,3089.071,1112.509,3082.558,1136.768z M3058.282,1121.182c-0.659-16.45-12.501-27.171-28.234-26.632
		c-14.721,0.504-25.706,11.582-25.704,26.632C3022.116,1121.182,3039.896,1121.182,3058.282,1121.182z"/>
	<path fill-rule="evenodd" clip-rule="evenodd" fill="#005EB8" d="M1657.282,1182.818c-25.836,1.546-53.041-17.042-53.878-51.766
		c-0.739-30.663,22.204-52.827,53.238-53.71c26.888-0.765,53.78,19.483,53.744,53.081
		C1710.354,1160.944,1686.66,1184.133,1657.282,1182.818z M1685.458,1132.282c-0.407-4.863-0.422-7.549-0.886-10.155
		c-2.331-13.113-12.53-22.887-24.659-23.782c-13.655-1.009-24.486,6.087-29.038,19.397c-3.241,9.479-3.104,19.067,1.162,28.197
		c4.932,10.557,13.316,16.477,25.199,16.398c11.882-0.078,20.287-6.075,24.9-16.762
		C1684.192,1140.815,1684.718,1135.394,1685.458,1132.282z"/>
	<path fill-rule="evenodd" clip-rule="evenodd" fill="#005EB8" d="M3973.528,1182.817c-26.781,1.625-53.846-17.88-54.107-52.514
		c-0.23-30.503,22.379-52.021,52.974-52.961c27.29-0.839,53.918,19.612,53.991,52.834
		C4026.454,1161.254,4002.341,1184.074,3973.528,1182.817z M4001.437,1132.781c-0.369-4.93-0.373-7.612-0.798-10.227
		c-2.135-13.109-12.262-23.129-24.293-24.181c-13.929-1.218-25.333,6.248-29.677,19.893c-3.025,9.505-2.861,19.11,1.604,28.185
		c5.152,10.47,13.64,16.143,25.526,15.865c11.475-0.268,19.601-6.109,24.155-16.35
		C4000.062,1141.229,4000.669,1135.824,4001.437,1132.781z"/>
	<path fill-rule="evenodd" clip-rule="evenodd" fill="#005EB8" d="M2299.914,1182.815c-31.452,1.256-53.376-24.216-53.493-52.167
		c-0.129-30.915,24.285-53.411,53.636-53.425c26.622-0.013,53.692,19.456,53.454,53.602
		C2353.299,1161.12,2329.946,1184.198,2299.914,1182.815z M2300.725,1097.213c-8.343,0.979-14.649,3.592-20.024,9.166
		c-11.902,12.341-12.107,35.001-0.432,47.499c8.77,9.386,24.083,11.229,34.695,4.177c18.236-12.12,18.088-44.269-0.51-55.741
		C2310.38,1099.8,2305.327,1098.871,2300.725,1097.213z"/>
	<path fill-rule="evenodd" clip-rule="evenodd" fill="#005EB8" d="M2584.68,1165.861c-2.614,2.001-4.241,3.026-5.607,4.327
		c-10.578,10.075-23.241,13.665-37.581,12.471c-13.769-1.146-26.03-11.231-28.719-23.858c-3.204-15.051,2.866-27.773,16.913-34.77
		c13.76-6.854,28.223-6.656,42.875-3.665c2.231,0.456,4.458,0.935,7.356,1.543c3.166-6.182,1.664-11.845-0.843-17.231
		c-2.718-5.838-7.771-9.08-14.021-10.081c-10.103-1.618-19.896-0.383-29.178,4.104c-3.271,1.581-6.497,3.257-10.737,5.39
		c-2.334-4.509-4.528-8.748-6.946-13.419c9.402-8.058,20.284-11.534,31.41-12.49c9.77-0.84,20.089-0.26,29.603,2.028
		c16.145,3.884,25.729,16.824,26.464,33.498c0.498,11.302,0.217,22.638,0.336,33.957c0.05,4.691,0.256,9.138,4.78,12.403
		c2.925,2.11,3.963,16.685,1.974,19.738c-0.51,0.783-1.377,1.45-2.229,1.877c-8.671,4.35-20.511-0.447-23.838-9.627
		C2586.14,1170.533,2585.687,1168.975,2584.68,1165.861z M2553.972,1166.481c7.859-0.691,14.543-3.144,20.633-7.578
		c6.781-4.938,8.169-11.774,6.866-19.427c-0.291-1.708-1.551-3.752-2.986-4.682c-8.711-5.641-27.729-4.827-36.243,1.289
		c-9.822,7.055-9.604,20.259,0.734,26.464C2546.249,1164.513,2550.285,1165.207,2553.972,1166.481z"/>
	<path fill-rule="evenodd" clip-rule="evenodd" fill="#005EB8" d="M4547.974,1180.223c-8.616,0-15.457,0-23.758,0
		c-0.645-33.421-0.195-66.212-0.324-99.925c7.54,0,13.945,0,21.077,0c0.394,4.97,0.777,9.822,1.265,15.974
		c2.447-1.823,4.334-2.849,5.735-4.333c11.786-12.481,26.647-15.88,42.937-14.01c8.814,1.012,15.749,6.009,18.932,14.436
		c2.194,5.813,3.888,12.17,4.058,18.331c0.579,20.981,0.412,41.983,0.438,62.978c0.002,1.915-0.648,3.832-1.145,6.572
		c-3.789,0.217-7.344,0.493-10.902,0.603c-3.301,0.101-6.607,0.021-11.103,0.021c-0.305-4.189-0.758-7.688-0.779-11.189
		c-0.087-14.331,0.129-28.666-0.138-42.993c-0.098-5.284-0.6-10.723-2.011-15.786c-2.692-9.654-11.44-14.146-21.171-11.536
		c-13.101,3.514-24.223,16.656-23.301,29.985c0.896,12.936,0.191,25.983,0.189,38.981
		C4547.974,1171.932,4547.974,1175.531,4547.974,1180.223z"/>
	<path fill-rule="evenodd" clip-rule="evenodd" fill="#005EB8" d="M2387.284,1079.943c6.65,0,12.818,0,19.658,0
		c0.423,5.335,0.808,10.188,1.295,16.334c2.448-1.829,4.336-2.861,5.741-4.348c11.789-12.478,26.652-15.875,42.939-14
		c8.813,1.015,15.746,6.019,18.924,14.447c2.192,5.814,3.884,12.17,4.054,18.332c0.578,20.98,0.411,41.982,0.437,62.977
		c0.002,1.915-0.65,3.831-1.146,6.562c-3.797,0.217-7.353,0.492-10.913,0.601c-3.302,0.1-6.609,0.021-11.091,0.021
		c-0.304-4.197-0.756-7.698-0.777-11.202c-0.087-14.331,0.13-28.666-0.138-42.993c-0.098-5.284-0.6-10.724-2.014-15.786
		c-2.694-9.648-11.449-14.132-21.181-11.52c-13.043,3.502-24.214,16.607-23.288,29.994c0.895,12.937,0.19,25.983,0.189,38.982
		c-0.001,3.604,0,7.208,0,11.657c-8.146,0-15.218,0-22.174,0C2385.485,1172.043,2384.982,1092.449,2387.284,1079.943z"/>
	<path fill-rule="evenodd" clip-rule="evenodd" fill="#005EB8" d="M1956.519,1170.246c3.496-5.932,6.309-10.703,9.387-15.925
		c3.635,1.744,6.577,3.145,9.51,4.565c10.043,4.866,20.524,7.933,31.788,6.815c3.548-0.352,7.364-1.125,10.403-2.855
		c7.435-4.235,7.548-13.816-0.047-17.703c-5.836-2.987-12.469-4.454-18.799-6.43c-6.654-2.075-13.545-3.501-20.027-5.999
		c-18.268-7.042-23.079-25.898-10.833-41.252c6.159-7.723,14.565-11.847,23.932-13.231c18.022-2.665,34.901,1.061,51.416,11.409
		c-3.046,4.731-5.832,9.06-8.995,13.974c-3.4-1.545-6.357-2.864-9.294-4.228c-8.311-3.856-17.013-5.797-26.165-4.827
		c-2.908,0.308-5.871,1.174-8.544,2.374c-3.969,1.783-6.044,5.289-6.077,9.584c-0.034,4.384,2.207,7.767,6.351,9.263
		c5.925,2.139,12.006,3.839,18,5.788c7.574,2.462,15.412,4.356,22.637,7.607c18.454,8.304,21.771,29.582,6.672,43.203
		c-4.043,3.647-9.396,6.678-14.649,8.005C2000.21,1186.187,1978.525,1181.941,1956.519,1170.246z"/>
	<path fill-rule="evenodd" clip-rule="evenodd" fill="#005EB8" d="M2153.376,1089.598c-3.196,4.903-5.879,9.02-9.035,13.861
		c-2.878-1.211-5.574-2.19-8.132-3.45c-8.538-4.205-17.502-6.445-27.017-5.454c-3.225,0.336-6.691,1.086-9.445,2.684
		c-7.813,4.535-7.582,14.154,0.444,18.336c3.778,1.968,8.083,2.956,12.194,4.246c8.873,2.783,17.903,5.122,26.633,8.295
		c10.403,3.781,18.063,10.511,18.045,22.556c-0.019,12.372-5.81,21.663-16.942,27.304c-11.829,5.994-24.632,5.701-37.173,4.245
		c-12.485-1.449-24.814-4.413-35.965-12.49c2.938-5.097,5.71-9.907,8.87-15.392c3.39,1.603,6.323,2.945,9.22,4.365
		c10.018,4.912,20.459,8.007,31.745,7.051c2.931-0.248,5.904-0.872,8.685-1.827c4.445-1.527,7.193-4.654,7.42-9.601
		c0.23-5.013-2.321-8.355-6.746-9.982c-5.908-2.173-11.984-3.896-18.012-5.741c-6.667-2.04-13.544-3.532-20.006-6.082
		c-17.309-6.831-22.175-24.793-11.083-39.936c6.754-9.22,16.435-13.51,27.324-14.727
		C2121.449,1075.952,2137.353,1079.844,2153.376,1089.598z"/>
	<path fill-rule="evenodd" clip-rule="evenodd" fill="#005EB8" d="M4712.403,1158.354c1.502,6.188,2.871,11.824,4.258,17.537
		c-12.025,6.781-24.086,8.217-36.43,6.241c-10.564-1.69-17.206-10.448-17.428-22.426c-0.3-16.3-0.096-32.608-0.105-48.913
		c-0.003-3.628,0-7.256,0-11.49c-4.57-1.158-8.59-2.177-13.108-3.321c0-5.119,0-9.957,0-15.409c4.046-0.709,7.821-1.37,12.861-2.252
		c0-10.574,0-21.03,0-32.133c8.739,0,16.151,0,24.665,0c0,10.784,0,20.973,0,32.365c7.702,0.586,14.429,1.098,21.707,1.65
		c0,5.383,0,10.217,0,16.175c-6.834,0.701-13.579,1.394-21.459,2.201c0,5.126-0.004,9.707,0.002,14.288
		c0.012,11.979-0.176,23.963,0.107,35.936c0.209,8.773,4.902,12.675,13.526,11.712
		C4704.556,1160.117,4708.053,1159.197,4712.403,1158.354z"/>
	<path fill-rule="evenodd" clip-rule="evenodd" fill="#005EB8" d="M1750.646,1179.824c-2.622-23.357,0.63-46.622-1.929-69.734
		c-4.25-0.815-7.748-1.486-11.827-2.269c0-5.161,0-9.994,0-15.386c3.655-0.813,7.117-1.582,11.765-2.616
		c0.326-3.57,0.642-7.402,1.033-11.228c0.607-5.941,0.531-12.072,2.042-17.779c4.571-17.271,18.088-26.655,35.828-24.823
		c6.45,0.666,12.731,2.966,20.16,4.783c-1.73,6.471-3.142,11.744-4.665,17.442c-4.854-0.645-9.024-1.551-13.218-1.678
		c-8.085-0.244-12.843,2.867-14.455,10.74c-1.435,7.008-1.327,14.331-1.999,22.758c9.172,0.659,16.945,1.218,25.44,1.828
		c0,5.438,0,10.515,0,16.444c-3.898,0.199-7.462,0.501-11.027,0.542c-13.973,0.159-13.981,0.128-13.992,14.528
		c-0.012,15.313,0.021,30.625-0.023,45.938c-0.01,3.267-0.267,6.532-0.441,10.509
		C1765.955,1179.824,1759.117,1179.824,1750.646,1179.824z"/>
	<path fill-rule="evenodd" clip-rule="evenodd" fill="#005EB8" d="M3636.247,1159.449c8.669-26.399,17.339-52.798,26.055-79.341
		c7.537,0,14.328,0,22.527,0c-12.553,33.938-24.739,66.883-37.238,100.675c-7.977,0-15.559-0.067-23.139,0.022
		c-5.497,0.066-6.134-4.423-7.461-7.982c-8.25-22.124-16.36-44.3-24.506-66.462c-3.074-8.365-6.12-16.741-9.549-26.125
		c8.574,0,16.015,0,24.461,0c9.658,25.853,16.762,53.043,26.35,79.327C3634.581,1159.525,3635.414,1159.487,3636.247,1159.449z"/>
	<path fill-rule="evenodd" clip-rule="evenodd" fill="#005EB8" d="M2640.409,1038.555c8.395,0,15.219,0,22.895,0
		c0.187,4.171,0.48,7.729,0.484,11.286c0.038,29.63,0.021,59.259,0.022,88.889c0.001,1.997-0.03,3.996,0.02,5.992
		c0.345,13.84,4.909,17.578,18.681,15.371c0.614-0.099,1.286,0.158,3.224,0.433c0.928,5.334,1.925,11.062,3,17.246
		c-11.466,5.685-22.876,6.497-34.364,3.687c-7.682-1.879-12.404-7.578-13.776-15.508c-0.62-3.587-0.852-7.281-0.858-10.928
		c-0.064-35.289-0.06-70.578-0.017-105.867C2639.723,1045.906,2640.13,1042.657,2640.409,1038.555z"/>
	<path fill-rule="evenodd" clip-rule="evenodd" fill="#005EB8" d="M3848.437,1038.572c8.411,0,15.235,0,23.373,0
		c0,4.219,0,7.771,0,11.322c0,29.63,0,59.26,0.002,88.889c0,1.998-0.032,3.996,0.02,5.992c0.353,13.813,4.884,17.496,18.733,15.31
		c0.608-0.097,1.277,0.187,3.193,0.504c0.914,5.314,1.898,11.043,2.964,17.236c-11.508,5.575-22.906,6.478-34.401,3.615
		c-7.681-1.912-12.382-7.612-13.735-15.544c-0.613-3.588-0.843-7.282-0.85-10.929c-0.063-35.288-0.061-70.577-0.016-105.866
		C3847.724,1045.857,3848.149,1042.614,3848.437,1038.572z"/>
	<path fill-rule="evenodd" clip-rule="evenodd" fill="#005EB8" d="M1521.364,1079.974c7.15,0,13.655,0,20.988,0
		c0.555,6.005,1.084,11.743,1.775,19.233c10.239-11.097,18.437-23.168,35.553-21.089c0,7.256,0,14.025,0,21.183
		c-4.727,1.093-9.37,1.632-13.58,3.28c-4.873,1.907-9.685,4.34-13.933,7.371c-4.797,3.422-6.981,8.438-6.868,14.685
		c0.272,14.955,0.11,29.92,0.061,44.881c-0.012,3.253-0.291,6.505-0.484,10.535c-8.056,0-15.451,0-23.512,0
		C1521.364,1146.846,1521.364,1114.075,1521.364,1079.974z"/>
	<path fill-rule="evenodd" clip-rule="evenodd" fill="#005EB8" d="M2187.501,1080.004c7.336,0,14.167,0,21.729,0
		c0,33.365,0,66.116,0,99.307c-7.017,2.678-14.136,1.604-21.133,0.89C2185.396,1172.664,2184.83,1091.953,2187.501,1080.004z"/>
	<path fill-rule="evenodd" clip-rule="evenodd" fill="#005EB8" d="M2186.907,1038.442c7.74,0,14.514,0,21.89,0
		c2.094,7.755,0.982,15.146,0.795,23.315c-7.649,0-14.685,0-22.196,0C2184.846,1054.375,2185.718,1046.996,2186.907,1038.442z"/>
</g>
</svg>
